<?xml version="1.0" encoding="utf-8"?>
<!-- Generator: Adobe Illustrator 23.0.6, SVG Export Plug-In . SVG Version: 6.00 Build 0)  -->
<svg version="1.1" id="Lag_1" xmlns="http://www.w3.org/2000/svg" xmlns:xlink="http://www.w3.org/1999/xlink" x="0px" y="0px"
	 viewBox="0 0 1000 346.13" style="enable-background:new 0 0 1000 346.13;" xml:space="preserve">
<style type="text/css">
	.st0{fill:url(#SVGID_1_);}
	.st1{fill:#E52629;}
	.st2{fill:#FFFFFF;}
</style>
<linearGradient id="SVGID_1_" gradientUnits="userSpaceOnUse" x1="25.5341" y1="194.7448" x2="136.0789" y2="194.7448">
	<stop  offset="0" style="stop-color:#E52629"/>
	<stop  offset="0.0451" style="stop-color:#CD2323"/>
	<stop  offset="0.1241" style="stop-color:#AC1E1B"/>
	<stop  offset="0.2004" style="stop-color:#951B15"/>
	<stop  offset="0.272" style="stop-color:#881912"/>
	<stop  offset="0.3342" style="stop-color:#841811"/>
	<stop  offset="1" style="stop-color:#E52629"/>
</linearGradient>
<rect x="25.53" y="183.34" class="st0" width="110.54" height="22.81"/>
<path class="st1" d="M164.57,183.34c0.36-20.28-8.33-51.78-44.18-51.78c-32.23,0-46.35,29.69-48.89,51.78c0,0-0.81,11-0.36,22.81
	c0.72,43.09,28.24,60.84,60.11,60.84c22.81,0,36.57-3.98,48.52-9.05l5.43,22.81c-11.23,5.07-30.42,10.86-58.3,10.86
	c-53.96,0-86.18-35.49-86.18-88.36c0-52.87,31.14-94.51,82.2-94.51c57.21,0,72.42,50.33,72.42,82.56c0,6.52-0.72,11.59-1.09,14.85
	h-58.19v-22.81H164.57z"/>
<path class="st2" d="M238.07,287.99v-151h-24.62v-24.26h24.62v-8.33c0-24.62,5.43-47.07,20.28-61.2
	c11.95-11.59,27.88-16.3,42.73-16.3c11.23,0,21,2.53,27.16,5.07l-4.35,24.62c-4.71-2.17-11.23-3.98-20.28-3.98
	c-27.16,0-34.04,23.9-34.04,50.7v9.41h42.37v24.26h-42.37v151H238.07z"/>
<path class="st2" d="M487.2,240.19c0,18.11,0.36,34.04,1.45,47.8h-28.25l-1.81-28.61h-0.72c-8.33,14.12-26.8,32.59-57.94,32.59
	c-27.52,0-60.47-15.21-60.47-76.77V112.73h31.87v97.05c0,33.32,10.14,55.77,39.11,55.77c21.36,0,36.21-14.85,42-28.97
	c1.81-4.71,2.9-10.5,2.9-16.3V112.73h31.87V240.19z"/>
<path class="st2" d="M540.06,160.16c0-18.1-0.36-32.95-1.45-47.44h27.88l1.45,28.25h1.09c9.78-16.66,26.07-32.23,55.04-32.23
	c23.9,0,42,14.48,49.61,35.13h0.72c5.43-9.78,12.31-17.38,19.55-22.81c10.5-7.96,22.09-12.31,38.75-12.31
	c23.18,0,57.58,15.21,57.58,76.04v103.2h-31.14v-99.22c0-33.68-12.31-53.95-38.02-53.95c-18.1,0-32.23,13.4-37.66,28.97
	c-1.45,4.34-2.53,10.14-2.53,15.93v108.27h-31.14V182.98c0-27.88-12.31-48.16-36.57-48.16c-19.92,0-34.4,15.93-39.47,31.87
	c-1.81,4.71-2.53,10.14-2.53,15.57v105.74h-31.14V160.16z"/>
<path class="st2" d="M939.1,287.99l-2.53-22.09h-1.09c-9.78,13.76-28.61,26.07-53.59,26.07c-35.49,0-53.59-24.99-53.59-50.33
	c0-42.37,37.66-65.54,105.37-65.18v-3.62c0-14.48-3.98-40.56-39.83-40.56c-16.29,0-33.32,5.07-45.63,13.04l-7.24-21
	c14.48-9.41,35.49-15.57,57.58-15.57c53.59,0,66.63,36.57,66.63,71.7v65.54c0,15.21,0.72,30.06,2.9,42.01H939.1z M934.4,198.55
	c-34.76-0.72-74.23,5.43-74.23,39.47c0,20.64,13.76,30.42,30.05,30.42c22.81,0,37.3-14.48,42.37-29.33
	c1.09-3.26,1.81-6.88,1.81-10.14V198.55z"/>
</svg>
