<svg height="50px" viewBox="0 0 512 512" width="50px" xmlns="http://www.w3.org/2000/svg"><g id="Flat"><path d="m400 208v224a24.006 24.006 0 0 1 -24 24h-304a24.006 24.006 0 0 1 -24-24v-224a32 32 0 0 1 32-32h288a32.668 32.668 0 0 1 5.89.54 32.008 32.008 0 0 1 26.11 31.46z" fill="#d3669a"></path><path d="m400 208v224a24.006 24.006 0 0 1 -24 24h-304a24.006 24.006 0 0 1 -24-24v-16.3c122.48-39.37 237.89-113.79 325.89-239.16a32.008 32.008 0 0 1 26.11 31.46z" fill="#cc5e92"></path><path d="m216 176v72a16 16 0 0 0 16 16h56v40l48-40h64v-88z" fill="#cc5e92"></path><path d="m264 448a27.315 27.315 0 0 1 -19.314 8h-41.372a27.315 27.315 0 0 1 -19.314-8 27.315 27.315 0 0 0 -19.314-8h-140.686v24a24 24 0 0 0 24 24h352a24 24 0 0 0 24-24v-24h-140.686a27.315 27.315 0 0 0 -19.314 8z" fill="#e0e0de"></path><rect fill="#4db7e5" height="176" rx="16" width="248" x="192" y="64"></rect><path d="m192 208 80-48 72 48 48-24 48 32v8a16 16 0 0 1 -16 16h-112l-48 40v-40h-56a16 16 0 0 1 -16-16z" fill="#348fd9"></path><circle cx="244" cy="116" fill="#f35244" r="20"></circle><path d="m352 64-39.858 39.858a19.8 19.8 0 0 0 2.121 29.839 19.8 19.8 0 0 0 25.879-1.839l43.858-43.858 4.324 2.882a78.1 78.1 0 0 0 43.324 13.118 78.1 78.1 0 0 0 55.228-22.876l1.124-1.124v-56h-169.352a40 40 0 0 0 -34.3 19.42l-12.348 20.58z" fill="#fec9a3"></path><path d="m352 72a8 8 0 0 1 -5.657-13.657l16-16a8 8 0 0 1 11.314 11.314l-16 16a7.974 7.974 0 0 1 -5.657 2.343z" fill="#f7ad7c"></path><path d="m472 408h-144a16 16 0 0 1 -16-16v-16h-32l32-32v-48a16 16 0 0 1 16-16h144a16 16 0 0 1 16 16v96a16 16 0 0 1 -16 16z" fill="#348fd9"></path><path d="m336 304h80v16h-80z" fill="#4db7e5"></path><path d="m432 304h32v16h-32z" fill="#4db7e5"></path><path d="m336 368h128v16h-128z" fill="#4db7e5"></path><path d="m336 336h128v16h-128z" fill="#4db7e5"></path><path d="m72 200h16v16h-16z" fill="#ad4275"></path><path d="m104 200h16v16h-16z" fill="#ad4275"></path><path d="m136 200h16v16h-16z" fill="#ad4275"></path><path d="m72 232h96v16h-96z" fill="#ad4275"></path><path d="m184 408h-144a16 16 0 0 1 -16-16v-96a16 16 0 0 1 16-16h144a16 16 0 0 1 16 16v24l32 32h-32v40a16 16 0 0 1 -16 16z" fill="#348fd9"></path><g fill="#4db7e5"><path d="m48 304h16v16h-16z"></path><path d="m48 336h16v16h-16z"></path><path d="m48 368h16v16h-16z"></path><path d="m80 304h96v16h-96z"></path><path d="m80 336h96v16h-96z"></path><path d="m80 368h96v16h-96z"></path></g><path d="m360 440v24a24 24 0 0 1 -24 24h64a24 24 0 0 0 24-24v-24z" fill="#d6d6d4"></path></g></svg>