<svg height="50px" viewBox="0 0 511.99846 511" width="50px" xmlns="http://www.w3.org/2000/svg"><path d="m161.441406 402.410156h294.558594c0-35.5-20.550781-69.246094-50.398438-85.648437-4.753906-.882813-9.628906-1.351563-14.601562-1.351563h-140c-46.695312 0-85.074219 40.84375-89.558594 87zm0 0" fill="#7ed8f6"></path><path d="m406.152344 144.1875-9.152344-5.6875c-3.40625-1.34375-7.113281-2.089844-11-2.089844h-10v-12.222656h-99l-40 40v40c0 29.273438 15.761719 55.242188 40 69.300781v40.699219c3.539062 4.421875 7.640625 8.066406 12.089844 10.960938 17.054687 2.300781 35.0625-3.933594 46.910156-18.738282v-40.699218c23.910156-13.839844 40-39.691407 40-69.300782h10c16.570312 0 30-13.429687 30-30 0-8.8125-3.796875-16.734375-9.847656-22.222656zm0 0" fill="#fed2a4"></path><path d="m206 136.410156c-16.570312 0-30 13.429688-30 30 0 16.570313 13.429688 30 30 30h10v-60zm0 0" fill="#fed2a4"></path><path d="m256 116.410156h120c20.941406-20.945312 23.898438-57.363281 8.007812-82.171875l-3.199218-3.828125c-1.21875 3.609375-3.128906 10.347656-4.867188 16.660156-2.382812 8.679688-10.269531 16.25-19.269531 16.25h-64.671875c-16.570312 0-30 13.429688-30 30-16.570312 0-30 13.429688-30 30v17.089844zm0 0" fill="#766e6e"></path><path d="m248 443.410156 1.03125 3.078125c9.039062 27.121094 31.121094 47.183594 57.875 54.191407 31.246094-4.117188 57.898438-25.695313 68.0625-56.191407l.363281-1.078125zm0 0" fill="#fdbf00"></path><path d="m482.398438 404.410156h-337.398438l-19.601562 98h376.601562zm-107.429688 38.078125c-11.328125 33.992188-43.140625 56.921875-78.96875 56.921875s-67.640625-22.929687-78.96875-56.921875l-1.03125-3.078125h160zm0 0" fill="#766e6e"></path><path d="m150 216.410156-25.75-34.332031c3.691406-7.789063 5.75-16.488281 5.75-25.667969 0-23.664062-13.699219-44.117187-33.59375-53.882812-31.464844 1.859375-56.40625 27.949218-56.40625 59.882812 0 23.753906 13.800781 44.277344 33.824219 54zm0 0" fill="#fdbf00"></path><path d="m442 338.410156c0 5.523438-4.476562 10-10 10s-10-4.476562-10-10c0-5.523437 4.476562-10 10-10s10 4.476563 10 10zm0 0"></path><path d="m336 186.410156c5.519531 0 10-4.480468 10-10 0-5.519531-4.480469-10-10-10s-10 4.480469-10 10c0 5.519532 4.480469 10 10 10zm0 0"></path><path d="m256 186.410156c5.519531 0 10-4.480468 10-10 0-5.519531-4.480469-10-10-10s-10 4.480469-10 10c0 5.519532 4.480469 10 10 10zm0 0"></path><path d="m491.804688 400.449219c-.933594-4.675781-5.039063-8.039063-9.804688-8.039063h-16.507812c-.722657-7.429687-2.226563-14.820312-4.542969-22.078125-1.675781-5.261719-7.304688-8.171875-12.5625-6.488281-5.265625 1.675781-8.167969 7.300781-6.492188 12.5625 1.679688 5.277344 2.847657 10.628906 3.496094 16.003906h-39.390625v-16c0-5.523437-4.476562-10-10-10s-10 4.476563-10 10v16h-180v-16c0-5.523437-4.476562-10-10-10s-10 4.476563-10 10v16h-39.402344c4.933594-41.503906 39.917969-76 79.402344-76h25.480469c11.542969 12.261719 27.496093 19.222656 44.519531 19.222656s32.976562-6.960937 44.519531-19.222656h25.480469c10.320312 0 20.441406 2.261719 30.074219 6.726563 4.980469 2.3125 10.945312.171875 13.28125-4.867188 2.320312-5.011719.140625-10.957031-4.871094-13.277343-12.289063-5.695313-25.238281-8.582032-38.484375-8.582032h-20v-25.160156c22.035156-14.765625 36.46875-38.628906 39.425781-64.839844h.574219c22.054688 0 40-17.945312 40-40 0-22.058594-17.945312-40-40-40v-6.078125c23.484375-26.738281 24.457031-70.746093 1.4375-98.332031l-14.949219-17.910156c-2.320312-2.777344-5.960937-4.08593775-9.515625-3.421875-3.558594.667969-6.480468 3.203125-7.636718 6.628906-1.082032 3.203125-2.683594 8.667969-5.039063 17.21875-1.324219 4.820313-5.730469 8.894531-9.628906 8.894531h-64.667969c-18.96875 0-34.894531 13.273438-38.984375 31.015625-17.742187 4.089844-31.015625 20.015625-31.015625 38.984375v23c-22.054688 0-40 17.941406-40 40 0 22.054688 17.945312 40 40 40h.566406c2.226563 20.246094 11.175782 39.011719 25.792969 53.640625 4.160156 4.164063 8.730469 7.914063 13.640625 11.199219v25.160156h-20c-52.648438 0-94.515625 45.433594-99.503906 96h-16.496094c-4.765625 0-8.871094 3.363282-9.804688 8.039063l-20 100c-.589843 2.9375.171876 5.984375 2.070313 8.300781s4.738281 3.660156 7.734375 3.660156h412c2.996094 0 5.832031-1.34375 7.730469-3.660156 1.902343-2.316406 2.660156-5.363281 2.074219-8.300781zm-195.804688-84.816407c-11.472656 0-22.226562-4.695312-30-12.96875v-21.402343c9.59375 3.382812 19.742188 5.148437 30 5.148437s20.40625-1.765625 30-5.148437v21.402343c-7.773438 8.273438-18.527344 12.96875-30 12.96875zm110-149.222656c0 11.027344-8.972656 20-20 20v-40c11.027344 0 20 8.972656 20 20zm-180-63c0-11.027344 8.972656-20 20-20 5.523438 0 10-4.480468 10-10 0-11.027344 8.972656-20 20-20h64.671875c12.527344 0 24.277344-9.222656 28.46875-22.117187l2.941406 3.523437c16.4375 19.699219 15.917969 52.136719-.464843 71.59375h-115.617188c-2.652344 0-5.195312 1.054688-7.070312 2.929688l-22.929688 22.925781zm-40 63c0-11.027344 8.972656-20 20-20v40c-11.027344 0-20-8.972656-20-20zm40 30v-35.859375l34.140625-34.140625h105.859375v70c0 24.90625-13.414062 48.144532-35.003906 60.640625-10.597656 6.121094-22.699219 9.359375-34.996094 9.359375s-24.398438-3.238281-34.984375-9.351562c-5.3125-3.082032-10.199219-6.835938-14.511719-11.148438-13.222656-13.230468-20.503906-30.808594-20.503906-49.5zm4.730469 255.988282h130.539062c-12.347656 24.300781-37.386719 40.011718-65.269531 40.011718s-52.917969-15.707031-65.269531-40.011718zm123.007812 40.011718c25.183594-19.855468 30.910157-45.148437 31.746094-46.828125 1.019531-3.050781.507813-6.40625-1.371094-9.015625-1.878906-2.609375-4.898437-4.15625-8.113281-4.15625h-160c-3.214844 0-6.234375 1.546875-8.113281 4.15625-1.878907 2.609375-2.390625 5.964844-1.371094 9.015625.820313 1.644531 6.507813 26.929688 31.75 46.828125h-136.066406l16-80h355.601562l16 80zm0 0"></path><path d="m269.269531 229.148438c8.40625 3.957031 17.398438 5.960937 26.730469 5.960937 9.132812 0 17.953125-1.925781 26.21875-5.722656 5.015625-2.308594 7.214844-8.246094 4.90625-13.265625-2.304688-5.015625-8.246094-7.214844-13.261719-4.90625-5.625 2.585937-11.632812 3.894531-17.863281 3.894531-6.363281 0-12.492188-1.363281-18.210938-4.058594-5-2.351562-10.953124-.207031-13.308593 4.789063-2.351563 4.996094-.207031 10.957031 4.789062 13.308594zm0 0"></path><path d="m150 226.410156c3.789062 0 7.25-2.140625 8.945312-5.527344 1.691407-3.390624 1.328126-7.441406-.945312-10.472656l-22.3125-29.746094c2.863281-7.738281 4.3125-15.871093 4.3125-24.253906 0-38.597656-31.402344-70-70-70s-70 31.402344-70 70 31.402344 70 70 70zm-130-70c0-27.570312 22.429688-50 50-50s50 22.429688 50 50c0 7.484375-1.609375 14.683594-4.789062 21.386719-1.585938 3.355469-1.1875 7.316406 1.039062 10.28125l13.75 18.332031h-60c-27.570312 0-50-22.429687-50-50zm0 0"></path><path d="m100 156.410156c0-5.523437-4.476562-10-10-10h-40c-5.523438 0-10 4.476563-10 10 0 5.519532 4.476562 10 10 10h40c5.523438 0 10-4.476562 10-10zm0 0"></path></svg>