<svg id="FilledOutline" height="50px" viewBox="0 0 512 512" width="50px" xmlns="http://www.w3.org/2000/svg"><path d="m72 24h320v408h-320z" fill="#0093ba"></path><path d="m360 112h128v136h-128z" fill="#ecaf4a"></path><path d="m312 232h176v136h-176z" fill="#ecaf4a"></path><path d="m400 112h48v40h-48z" fill="#f9d28d"></path><path d="m264 352h224v136h-224z" fill="#ecaf4a"></path><path d="m344 352h64v48h-64z" fill="#f9d28d"></path><path d="m368 232h64v48h-64z" fill="#f9d28d"></path><g fill="#d69f44"><path d="m264 472h224v16h-224z"></path><path d="m312 336h176v16h-176z"></path><path d="m360 216h128v16h-128z"></path></g><path d="m75.892 207.288h119.034v32h-119.034z" fill="#ecaf4a" transform="matrix(.707 -.707 .707 .707 -118.228 161.148)"></path><path d="m137.348 181.832h47.034v32h-47.034z" fill="#d18b29" transform="matrix(.707 -.707 .707 .707 -92.772 171.692)"></path><path d="m132.922 146.579s5.657 16.97 33.941 45.254 45.255 33.942 45.255 33.942l56.568-56.569s-11.313-22.627-33.941-45.255-45.255-33.941-45.255-33.941z" fill="#ecaf4a"></path><rect fill="#d18b29" height="112" rx="16" transform="matrix(.707 .707 -.707 .707 221.373 -116.833)" width="32" x="235.716" y="152.804"></rect><rect fill="#d18b29" height="112" rx="16" transform="matrix(.707 .707 -.707 .707 119.549 -74.656)" width="32" x="133.892" y="50.981"></rect><rect fill="#d18b29" height="32" rx="16" transform="matrix(.707 .707 -.707 .707 219.667 23.05)" width="64" x="50.01" y="260.686"></rect><path d="m80 32h304v56h16v-64a8 8 0 0 0 -8-8h-320a8 8 0 0 0 -8 8v200h16z"></path><path d="m80 320h-16v112a8 8 0 0 0 8 8h168v-16h-160z"></path><path d="m304 180.52a24.017 24.017 0 0 0 -32.425-22.48 210.429 210.429 0 0 0 -70.946-70.934 23.986 23.986 0 0 0 -39.423-25.38l-56.569 56.568a24.028 24.028 0 0 0 0 33.941 24.049 24.049 0 0 0 24.912 5.687c.84 1.488 1.822 3.141 2.987 4.972a167.693 167.693 0 0 0 12.436 16.887l-63.925 63.927a24.006 24.006 0 0 0 -27.321 38.635l22.627 22.627a23.984 23.984 0 0 0 38.608-27.294l63.952-63.953a167.707 167.707 0 0 0 16.887 12.437c1.83 1.164 3.483 2.147 4.971 2.987a24.049 24.049 0 0 0 5.687 24.912 24 24 0 0 0 33.94 0l56.568-56.568a23.84 23.84 0 0 0 7.034-16.971zm-188.049-39.6a8.01 8.01 0 0 1 0-11.314l56.57-56.568a8 8 0 1 1 11.312 11.314l-56.568 56.568a8 8 0 0 1 -11.314 0zm-22.627 113.139 39.6-39.6 11.313 11.314-39.6 39.6zm5.657 39.6a8.011 8.011 0 0 1 -11.315 0l-22.626-22.63a8 8 0 1 1 11.313-11.313l22.627 22.627a8.008 8.008 0 0 1 .001 11.313zm56.568-79.195-11.313-11.314 11.391-11.392q2.7 2.849 5.579 5.735t5.735 5.579zm16.972-28.284c-18.273-18.272-26.615-31.523-30-37.886l48.359-48.359a196.429 196.429 0 0 1 38.206 29.676 197.3 197.3 0 0 1 29.671 38.212l-48.35 48.35c-6.394-3.401-19.635-11.745-37.886-29.996zm113.135 0-56.568 56.568a8 8 0 0 1 -11.313 0 8 8 0 0 1 0-11.314l56.569-56.568a8 8 0 1 1 11.312 11.314z"></path><path d="m344 56h16v16h-16z"></path><path d="m312 56h16v16h-16z"></path><path d="m128 320h16v16h-16z"></path><path d="m112 352h128v16h-128z"></path><path d="m112 384h112v16h-112z"></path><path d="m160 320h80v16h-80z"></path><path d="m256 88h80v16h-80z"></path><path d="m48 440v-48h-16v48a32.036 32.036 0 0 0 32 32h104v-16h-104a16.019 16.019 0 0 1 -16-16z"></path><path d="m184 456h16v16h-16z"></path><path d="m448 448h16v16h-16z"></path><path d="m416 448h16v16h-16z"></path><path d="m448 312h16v16h-16z"></path><path d="m416 312h16v16h-16z"></path><path d="m488 104h-128a8 8 0 0 0 -8 8v112h-40a8 8 0 0 0 -8 8v112h-40a8 8 0 0 0 -8 8v136a8 8 0 0 0 8 8h224a8 8 0 0 0 8-8v-376a8 8 0 0 0 -8-8zm-80 16h32v24h-32zm-40 0h24v32a8 8 0 0 0 8 8h48a8 8 0 0 0 8-8v-32h24v104h-112zm8 120h48v32h-48zm-56 0h40v40a8 8 0 0 0 8 8h64a8 8 0 0 0 8-8v-40h40v104h-160zm32 120h48v32h-48zm128 120h-208v-120h64v40a8 8 0 0 0 8 8h64a8 8 0 0 0 8-8v-40h64z"></path><path d="m448 192h16v16h-16z"></path><path d="m416 192h16v16h-16z"></path></svg>