<svg xmlns="http://www.w3.org/2000/svg" id="Layer_1" data-name="Layer 1" viewBox="0 0 512 512" width="50px" height="50px"><title>Customer feed back</title><path d="M492.12,89.08v62.51a17.133,17.133,0,0,1-17.14,17.13H373.11c-11.89,0-17.2,6.44-19.73,13.59s-2.27,14.99-3.05,17.78c-.11.38-.22.51-.33.33,0,0-15.39-4.87-19.28-26.92a5.919,5.919,0,0,0-5.87-4.78h-6.98a17.139,17.139,0,0,1-17.14-17.13V89.08a17.148,17.148,0,0,1,17.14-17.14H474.98A17.141,17.141,0,0,1,492.12,89.08Z" fill="#6fe3ff"></path><path d="M483.88,375.03v49.76H347.78V367.94a56.568,56.568,0,0,0-9.61-31.63,49.539,49.539,0,0,1,30-11.03,42.839,42.839,0,0,0,67.6,1.66,12.652,12.652,0,0,1,1.4-1.58A49.773,49.773,0,0,1,483.88,375.03Z" fill="#f8ec7d"></path><path d="M446,242.35v22.11a44.23,44.23,0,0,1-88.46,0V242.35a44.23,44.23,0,1,1,88.46,0Z" fill="#f8ec7d"></path><path d="M338.17,336.31a56.568,56.568,0,0,1,9.61,31.63v82.12H160.18V367.94a56.843,56.843,0,0,1,55.41-56.83A48.943,48.943,0,0,0,292.82,313a15.272,15.272,0,0,1,1.6-1.81A56.822,56.822,0,0,1,338.17,336.31Z" fill="#e48e66"></path><path d="M304.51,216.36v25.26a50.53,50.53,0,0,1-101.06,0V216.36a50.53,50.53,0,0,1,101.06,0Z" fill="#e48e66"></path><path d="M211.27,79.08v72.51a17.139,17.139,0,0,1-17.14,17.13H182.26c-23.79,0-15.22,25.78-16.79,31.37-.1.38-.21.51-.33.33,0,0-15.38-4.87-19.28-26.92a5.911,5.911,0,0,0-5.87-4.78H37.02a17.133,17.133,0,0,1-17.14-17.13V79.08A17.141,17.141,0,0,1,37.02,61.94H194.13A17.148,17.148,0,0,1,211.27,79.08Z" fill="#e48e66"></path><path d="M167.62,334.8l1.99,1.78a56.536,56.536,0,0,0-9.43,31.36v56.85H23.88V375.03a49.773,49.773,0,0,1,48.5-49.75,42.849,42.849,0,0,0,67.61,1.66,10.984,10.984,0,0,1,1.4-1.58A49.5,49.5,0,0,1,167.62,334.8Z" fill="#f8ec7d"></path><path d="M150.21,242.35v22.11a44.225,44.225,0,1,1-88.45,0V242.35a44.225,44.225,0,1,1,88.45,0Z" fill="#f8ec7d"></path><path d="M253.98,159.83a56.594,56.594,0,0,0-56.53,56.53v25.26a56.53,56.53,0,0,0,113.06,0V216.36a56.531,56.531,0,0,0-56.53-56.53Zm44.53,81.79a44.53,44.53,0,0,1-89.06,0V216.36a44.53,44.53,0,1,1,89.06,0Z" fill="#63316d"></path><path d="M160.18,456.06h187.6a6,6,0,0,0,6-6V430.79h130.1a6,6,0,0,0,6-6V375.03a55.82,55.82,0,0,0-52.347-55.659c-.121-.007-.242-.011-.363-.011-2.906,0-4.279,1.655-6.04,3.776A36.84,36.84,0,0,1,373,321.716a6.051,6.051,0,0,0-4.974-2.434,55.125,55.125,0,0,0-28.587,8.737A63.226,63.226,0,0,0,294.784,305.2c-.121-.007-.242-.011-.364-.011-2.926,0-4.309,1.671-6.24,4a42.942,42.942,0,0,1-67.763-1.649,5.969,5.969,0,0,0-4.974-2.434,62.861,62.861,0,0,0-47.01,22.986,55.487,55.487,0,0,0-26.682-8.727c-.12-.007-.241-.011-.361-.011-2.943,0-4.378,1.75-6.04,3.776a36.85,36.85,0,0,1-58.144-1.42,6.087,6.087,0,0,0-4.976-2.434A55.772,55.772,0,0,0,17.88,375.03v49.76a6,6,0,0,0,6,6h130.3v19.27A6,6,0,0,0,160.18,456.06ZM402.61,348.65a48.693,48.693,0,0,0,37.068-17.032,43.813,43.813,0,0,1,38.2,43.412v43.76H353.78V367.94a62.561,62.561,0,0,0-7.618-29.984,43.156,43.156,0,0,1,19.237-6.511A48.307,48.307,0,0,0,402.61,348.65ZM212.8,317.267a54.951,54.951,0,0,0,84.136.171,51.205,51.205,0,0,1,36.255,22.213c.018.028.035.057.054.084s.03.049.047.073a50.615,50.615,0,0,1,8.492,28.132v76.12H166.18V367.94A50.845,50.845,0,0,1,212.8,317.267ZM29.88,418.79V375.03a43.779,43.779,0,0,1,39.731-43.583,48.857,48.857,0,0,0,74.286.171,43.5,43.5,0,0,1,17.845,6.438,62.574,62.574,0,0,0-7.562,29.884v50.85Z" fill="#63316d"></path><path d="M452,264.46V242.35a50.23,50.23,0,0,0-100.46,0v22.11a50.23,50.23,0,0,0,100.46,0Zm-88.46,0V242.35a38.23,38.23,0,1,1,76.46,0v22.11a38.23,38.23,0,0,1-76.46,0Z" fill="#63316d"></path><path d="M156.21,264.46V242.35a50.225,50.225,0,1,0-100.45,0v22.11a50.225,50.225,0,1,0,100.45,0Zm-88.45,0V242.35a38.225,38.225,0,1,1,76.45,0v22.11a38.225,38.225,0,1,1-76.45,0Z" fill="#63316d"></path><path d="M498.12,151.59V89.08a23.166,23.166,0,0,0-23.14-23.14H317.87a23.167,23.167,0,0,0-23.14,23.14v62.51a23.161,23.161,0,0,0,23.14,23.13l6.975.014c4.022,22.368,18.714,29.587,22.484,31.091a6.038,6.038,0,0,0,3.578.62,6.273,6.273,0,0,0,5.2-4.74,33.017,33.017,0,0,0,.794-5.536,49.708,49.708,0,0,1,2.134-11.857c2.348-6.634,6.688-9.592,14.074-9.592H474.98A23.161,23.161,0,0,0,498.12,151.59Zm-12,0a11.147,11.147,0,0,1-11.14,11.13H373.11c-12.536,0-21.315,6.082-25.388,17.592a49.246,49.246,0,0,0-2.272,10.073c-3.407-3.3-7.224-8.873-8.824-17.94a11.884,11.884,0,0,0-11.776-9.725h-6.98a11.148,11.148,0,0,1-11.14-11.13V89.08a11.153,11.153,0,0,1,11.14-11.14H474.98a11.153,11.153,0,0,1,11.14,11.14Z" fill="#63316d"></path><path d="M194.13,55.94H37.02A23.166,23.166,0,0,0,13.88,79.08v72.51a23.161,23.161,0,0,0,23.14,23.13l102.966.016c4.044,22.435,18.806,29.629,22.517,31.1a6.1,6.1,0,0,0,2.752.66,5.95,5.95,0,0,0,.993-.083,6.247,6.247,0,0,0,5.01-4.744c.616-2.233.436-4.877.208-8.218-.365-5.353-.865-12.684,2.345-16.12,1.621-1.734,4.463-2.614,8.449-2.614h11.87a23.161,23.161,0,0,0,23.14-23.13V79.08A23.167,23.167,0,0,0,194.13,55.94Zm11.14,95.65a11.148,11.148,0,0,1-11.14,11.13H182.26c-7.444,0-13.237,2.161-17.218,6.423-5.231,5.6-5.98,13.3-5.826,19.8-3.006-3.4-6.058-8.63-7.446-16.477a11.863,11.863,0,0,0-11.78-9.746H37.02a11.147,11.147,0,0,1-11.14-11.13V79.08A11.153,11.153,0,0,1,37.02,67.94H194.13a11.153,11.153,0,0,1,11.14,11.14Z" fill="#63316d"></path></svg>