<svg id="Layer_5" enable-background="new 0 0 64 64" height="50px" viewBox="0 0 64 64" width="50px" xmlns="http://www.w3.org/2000/svg"><path d="m41 14c0 .49-.09.96-.25 1.4l-7.43-2.97c.61-1.43 2.03-2.43 3.68-2.43.33 0 .66.04.97.12 1.74.43 3.03 2.01 3.03 3.88z" fill="#ff826e"></path><path d="m26 58v4h-24v-4c0-2.21 1.79-4 4-4h16c2.21 0 4 1.79 4 4z" fill="#969faa"></path><path d="m54 30v6h-2-4v-6z" fill="#ccd1d9"></path><path d="m59 28v2h-5-6-5v-2c0-1.02.19-1.99.54-2.89 1.16-2.99 4.06-5.11 7.46-5.11.21 0 .42.01.62.03 4.13.31 7.38 3.76 7.38 7.97z" fill="#fcd770"></path><path d="m50.27 19.2-9.52-3.8-7.43-2.97-5.82-2.33-12.79-5.12-4.44-1.77c-.41-.14-.84-.21-1.27-.21-1.72 0-3.25 1.1-3.79 2.73-.34 1.02-.26 2.1.21 3.06.1.19.2.37.33.54.48.68 1.17 1.2 1.99 1.46l1.17.47 10.48 4.19 4.8 1.92 19.35 7.74c1.16-2.99 4.06-5.11 7.46-5.11.21 0 .42.01.62.03v-.05c-.39-.34-.85-.61-1.35-.78z" fill="#aab2bd"></path><path d="m7.94 24.96.97-13.7 10.48 4.19v.01l.71 10.54h-9.1c-1.12 0-2.19.21-3.18.58z" fill="#ccd1d9"></path><path d="m21.32 44 .68 10h-16l.65-11.12c1.29.71 2.78 1.12 4.35 1.12z" fill="#ccd1d9"></path><path d="m20.1 26 1.22 18h-10.32c-1.57 0-3.06-.41-4.35-1.12-2.77-1.53-4.65-4.49-4.65-7.88 0-2.48 1.01-4.74 2.64-6.36.89-.89 1.97-1.6 3.18-2.06.99-.37 2.06-.58 3.18-.58z" fill="#fcd770"></path><circle cx="11" cy="35" fill="#ffeaa7" r="5"></circle><path d="m54 36h-2-4-2-6-6v6h6 6 6 6v-6z" fill="#aab2bd"></path><path d="m62 42v6h-20-12v-6h4 6 6 6 6z" fill="#cf9e76"></path><path d="m42 48v6h-10v8h30v-14z" fill="#dfb28b"></path><path d="m62 52v6h-10c-1.1 0-2-.9-2-2v-2c0-1.1.9-2 2-2z" fill="#e6e9ed"></path><path d="m17 35c0-3.309-2.691-6-6-6s-6 2.691-6 6 2.691 6 6 6 6-2.691 6-6zm-10 0c0-2.206 1.794-4 4-4s4 1.794 4 4-1.794 4-4 4-4-1.794-4-4z"></path><path d="m59 41v-6h-4v-4h5v-3c0-4.601-3.472-8.4-7.933-8.931-.445-.347-.931-.629-1.429-.793l-8.709-3.483c.042-.261.071-.525.071-.793 0-2.128-1.342-3.937-3.22-4.658-2.673-5.149-7.907-8.342-13.724-8.342h-.801c-2.276 0-4.567.515-6.624 1.489l-2.959 1.402-4.085-1.634c-.514-.172-1.047-.258-1.587-.258-2.153 0-4.058 1.374-4.741 3.418-.404 1.209-.32 2.496.206 3.65-2.179 1.806-3.465 4.486-3.465 7.351 0 3.204 1.592 6.178 4.258 7.956l1.635 1.09-.032.444c-3.452 1.578-5.861 5.055-5.861 9.092 0 3.532 1.846 6.636 4.619 8.415l-.567 9.681c-2.305.445-4.052 2.472-4.052 4.904v5h26v-5c0-2.435-1.751-4.463-4.059-4.905l-2.446-36.12 21.814 8.725c-.195.736-.309 1.504-.309 2.3v3h5v4h-14v6h-4v8h12v4h-10v10h32v-4-8-2-1-7zm-2 0h-4v-4h4zm-16 0v-4h4v4zm6-4h4v4h-4zm-7-23c0 .007-.002.013-.002.02l-5.179-2.071c.557-.592 1.337-.949 2.181-.949 1.654 0 3 1.346 3 3zm-21.513-9.703c1.791-.849 3.785-1.297 5.767-1.297h.801c4.592 0 8.764 2.286 11.239 6.052-1.389.197-2.619.974-3.408 2.124l-15.681-6.272zm-12.331 1.753c.41-1.227 1.552-2.051 2.844-2.051.324 0 .645.052.898.136l16.259 6.503-2.481 5.457-15.623-6.249c-.761-.254-1.377-.788-1.735-1.505s-.416-1.531-.162-2.291zm.211 16.659c-2.108-1.405-3.367-3.757-3.367-6.291 0-2.22.972-4.304 2.633-5.731.503.462 1.088.822 1.732 1.036l.495.198-.803 11.248zm-3.367 12.291c0-4.411 3.589-8 8-8h8.169l1.084 16h-9.253c-4.411 0-8-3.589-8-8zm8 10h9.388l.542 8h-13.87l.505-8.621c1.073.395 2.227.621 3.435.621zm14 13v3h-22v-3c0-1.654 1.346-3 3-3h16c1.654 0 3 1.346 3 3zm-5.966-33h-8.034c-.715 0-1.412.079-2.085.222l.895-12.521 8.625 3.45zm6.502-8.162 2.481-5.457 20.182 8.072c-2.238.735-4.089 2.324-5.169 4.382zm18.464 11.162c0-3.86 3.14-7 7-7s7 3.14 7 7v1h-14zm5 3h4v4h-4zm-14 6h4v4h-4zm-4 6h30v4h-30zm30 14h-9c-.551 0-1-.449-1-1v-2c0-.551.449-1 1-1h9zm0-6h-9c-1.654 0-3 1.346-3 3v2c0 1.654 1.346 3 3 3h9v2h-28v-6h10v-6h18z"></path><path d="m39 57h2v2h-2z"></path><path d="m43 57h2v2h-2z"></path><path d="m35 57h2v2h-2z"></path><path d="m16.356 9.343h2.001v2h-2.001z" transform="matrix(.371 -.929 .929 .371 1.308 22.617)"></path><path d="m8.928 6.371h2.001v2h-2.001z" transform="matrix(.371 -.929 .929 .371 -.603 13.853)"></path><path d="m12.642 7.857h2v2h-2z" transform="matrix(.372 -.928 .928 .372 .351 18.232)"></path></svg>