<svg id="_x33_0" enable-background="new 0 0 64 64" height="60" viewBox="0 0 64 64" width="60" xmlns="http://www.w3.org/2000/svg"><g><g><g><path d="m2 46h4v16h-4z" fill="#ccd1d9"></path></g><g><path d="m10 52h4v10h-4z" fill="#ccd1d9"></path></g><g><path d="m22 48.02v13.98h-4v-11.51l1.33-1.34c.73-.73 1.69-1.11 2.67-1.13z" fill="#ccd1d9"></path></g><g><path d="m42 56h4v6h-4z" fill="#ccd1d9"></path></g><g><path d="m50 52h4v10h-4z" fill="#ccd1d9"></path></g><g><path d="m58 44h4v18h-4z" fill="#ccd1d9"></path></g><g><path d="m55.91 22c-1.57 0-2.98-.95-3.57-2.39-.01-.02-.02-.04-.02-.05-.61-1.45-.28-3.12.83-4.23l1.48-1.47-8.49-8.49-1.48 1.48c-1.1 1.11-2.77 1.44-4.22.83-.01 0-.03-.01-.05-.02-1.44-.59-2.39-2-2.39-3.57v-2.09h-6-6v2.09c0 1.57-.95 2.98-2.39 3.57-.02.01-.04.02-.05.02-1.45.61-3.12.28-4.22-.83l-1.48-1.48-8.49 8.49 1.48 1.47c1.11 1.11 1.44 2.78.83 4.23 0 .01-.01.03-.02.05-.59 1.44-2 2.39-3.57 2.39h-2.09v12h2.09c1.57 0 2.98.95 3.57 2.39.01.02.02.04.02.05.61 1.45.28 3.12-.83 4.22l-1.48 1.48 8.49 8.49.14-.14 1.33-1.34c.73-.73 1.69-1.11 2.67-1.13.53-.01 1.06.09 1.56.3.01 0 .03.01.05.02 1.44.59 2.39 2 2.39 3.57v2.09h12v-2.09c0-1.57.95-2.98 2.39-3.57.02-.01.04-.02.05-.02 1.45-.61 3.12-.28 4.23.83l1.47 1.48 8.49-8.49-1.48-1.48c-1.11-1.1-1.44-2.77-.83-4.22 0-.01.01-.03.02-.05.59-1.44 2-2.39 3.57-2.39h2.09v-12z" fill="#ffc729"></path></g><g><path d="m34 54v8h-4v-8-8.11c.66.07 1.32.11 2 .11s1.34-.04 2-.11z" fill="#ccd1d9"></path></g><g><path d="m32 10c9.94 0 18 8.06 18 18 0 9.26-7 16.89-16 17.89-.66.07-1.32.11-2 .11s-1.34-.04-2-.11c-9-1-16-8.63-16-17.89 0-9.94 8.06-18 18-18z" fill="#fcd770"></path></g><g><path d="m41.9 18.1c-2.54-2.53-6.04-4.1-9.9-4.1s-7.36 1.57-9.9 4.1c-2.53 2.54-4.1 6.04-4.1 9.9 0 2.14.48 4.18 1.35 6h25.3c.87-1.82 1.35-3.86 1.35-6 0-3.86-1.57-7.36-4.1-9.9z" fill="#69d6f4"></path></g><g><path d="m36 34h8.65c-2.25 4.73-7.07 8-12.65 8s-10.4-3.27-12.65-8h8.65c0 2.21 1.79 4 4 4s4-1.79 4-4z" fill="#ccd1d9"></path></g><g><path d="m34 22v8.54c-.59-.34-1.27-.54-2-.54s-1.41.2-2 .54v-8.54c0-1.1.9-2 2-2 .55 0 1.05.22 1.41.59.37.36.59.86.59 1.41z" fill="#ff826e"></path></g><g><path d="m34 30.54c1.2.69 2 1.98 2 3.46 0 2.21-1.79 4-4 4s-4-1.79-4-4c0-1.48.8-2.77 2-3.46.59-.34 1.27-.54 2-.54s1.41.2 2 .54z" fill="#fc6e51"></path></g></g><g><circle cx="32" cy="6" r="1"></circle><path d="m16.444 13.444c.256 0 .512-.098.707-.293.391-.391.391-1.024 0-1.414-.195-.195-.451-.293-.707-.293s-.512.098-.707.293c-.391.391-.391 1.024 0 1.414.195.195.451.293.707.293z"></path><circle cx="10" cy="28" r="1"></circle><path d="m16.444 42.556c-.256 0-.512.098-.707.293-.391.391-.391 1.024 0 1.414.195.195.451.293.707.293s.512-.098.707-.293c.391-.391.391-1.024 0-1.414-.195-.195-.451-.293-.707-.293z"></path><path d="m47.556 42.556c-.256 0-.512.098-.707.293-.391.391-.391 1.024 0 1.414.195.195.451.293.707.293s.512-.098.707-.293c.391-.391.391-1.024 0-1.414-.195-.195-.451-.293-.707-.293z"></path><circle cx="54" cy="28" r="1"></circle><path d="m47.556 13.444c.256 0 .512-.098.707-.293.391-.391.391-1.024 0-1.414-.195-.195-.451-.293-.707-.293s-.512.098-.707.293c-.391.391-.391 1.024 0 1.414.196.195.451.293.707.293z"></path><path d="m32 13c-8.271 0-15 6.729-15 15s6.729 15 15 15 15-6.729 15-15-6.729-15-15-15zm12.949 16c-.108 1.407-.431 2.753-.952 4h-7.098c-.247-1.213-.946-2.253-1.899-2.974v-8.026c0-1.654-1.346-3-3-3s-3 1.346-3 3v8.026c-.953.721-1.652 1.762-1.899 2.974h-7.098c-.522-1.247-.844-2.593-.952-4h1.949v-2h-1.949c.217-2.833 1.341-5.411 3.088-7.447l1.376 1.376 1.414-1.414-1.376-1.376c2.036-1.747 4.615-2.871 7.447-3.088v1.949h2v-1.949c2.833.217 5.411 1.341 7.447 3.088l-1.376 1.376 1.414 1.414 1.376-1.376c1.747 2.036 2.871 4.615 3.088 7.447h-1.949v2zm-11.949.101c-.323-.066-.658-.101-1-.101s-.677.035-1 .101v-7.101c0-.552.448-1 1-1s1 .448 1 1zm-1 1.899c1.654 0 3 1.346 3 3s-1.346 3-3 3-3-1.346-3-3 1.346-3 3-3zm0 10c-4.59 0-8.623-2.398-10.937-6h6.038c.465 2.279 2.484 4 4.899 4s4.434-1.721 4.899-4h6.038c-2.314 3.602-6.347 6-10.937 6z"></path><path d="m57 43v18h-2v-10h-6v10h-2v-6h-6v6h-6v-6h4v-3.089c0-1.165.697-2.206 1.825-2.672 1.079-.449 2.309-.204 3.133.618l2.185 2.184 9.898-9.898-2.184-2.185c-.824-.824-1.066-2.054-.597-3.183.445-1.078 1.486-1.775 2.651-1.775h3.089v-14h-3.089c-1.165 0-2.206-.697-2.672-1.825-.448-1.079-.206-2.309.618-3.133l2.184-2.185-9.898-9.898-2.185 2.184c-.824.825-2.053 1.066-3.183.597-1.078-.445-1.775-1.486-1.775-2.651v-3.089h-14v3.089c0 1.165-.697 2.206-1.825 2.672-1.08.449-2.309.204-3.133-.618l-2.185-2.184-9.898 9.898 2.184 2.185c.824.824 1.066 2.054.597 3.183-.445 1.078-1.486 1.775-2.651 1.775h-3.089v14h3.089c1.165 0 2.206.697 2.672 1.825.448 1.079.206 2.309-.618 3.133l-2.184 2.185 9.041 9.041v9.816h-2v-10h-6v10h-2v-16h-6v18h62v-20zm-52 18h-2v-14h2zm46-8h2v8h-2zm-8 4h2v4h-2zm-20-7.814c.075.025.15.044.225.075 1.078.444 1.775 1.485 1.775 2.65v3.089h4v6h-6zm9-4.186c-9.374 0-17-7.626-17-17s7.626-17 17-17 17 7.626 17 17-7.626 17-17 17zm-1 1.949c.333.018.662.051 1 .051s.667-.033 1-.051v14.051h-2zm-19.443-5.577c1.398-1.398 1.812-3.484 1.032-5.358-.755-1.831-2.522-3.014-4.5-3.014h-1.089v-10h1.089c1.979 0 3.745-1.183 4.52-3.058.76-1.83.347-3.916-1.052-5.314l-.77-.771 7.07-7.07.771.77c1.398 1.397 3.484 1.811 5.358 1.032 1.831-.755 3.014-2.522 3.014-4.5v-1.089h10v1.089c0 1.979 1.183 3.745 3.058 4.52 1.831.76 3.917.347 5.314-1.052l.771-.77 7.07 7.07-.77.771c-1.398 1.398-1.812 3.484-1.032 5.358.755 1.831 2.521 3.014 4.5 3.014h1.089v10h-1.089c-1.979 0-3.745 1.183-4.52 3.058-.76 1.83-.347 3.916 1.052 5.314l.77.771-7.07 7.07-.771-.77c-1.398-1.398-3.483-1.811-5.358-1.032-1.831.755-3.014 2.522-3.014 4.5v1.089h-2v-6.261c9.053-1.445 16-9.286 16-18.739 0-10.477-8.523-19-19-19s-19 8.523-19 19c0 9.453 6.947 17.294 16 18.739v6.261h-2v-1.089c0-1.979-1.183-3.745-3.058-4.52-1.83-.76-3.916-.346-5.314 1.052l-.771.77-7.07-7.07zm7.443 9.527 1.042-1.042c.279-.279.606-.485.958-.626v11.769h-2zm-8 2.101h2v8h-2zm50 8h-2v-16h2z"></path></g></g></svg>