<svg height="50px" viewBox="0 0 512 512" width="50px" xmlns="http://www.w3.org/2000/svg"><path d="m241 241h-30l-60-116.75 60-116.75h30zm0 0" fill="#ffa433"></path><path d="m211 241h-203.5v-233.5h86.75l30 30 30-30h56.75zm0 0" fill="#ffc43b"></path><path d="m121 199.25 60-30v-30h-30zm0 0" fill="#ff1b10"></path><path d="m151 199.25-83.5-30v-30h83.5zm0 0" fill="#ff451b"></path><path d="m181 211h-30l-30-20.875 30-20.875h30zm0 0" fill="#d6faff"></path><path d="m67.5 169.25h83.5v41.75h-83.5zm0 0" fill="#fff"></path><path d="m124.25 7.5-15 50.875 15 50.875h30v-101.75zm0 0" fill="#ffebbe"></path><path d="m94.25 7.5h30v101.75h-30zm0 0" fill="#fff"></path><path d="m504.5 504.5h-30l-60-116.75 60-116.75h30zm0 0" fill="#ffa433"></path><path d="m474.5 504.5h-203.5v-233.5h86.75l30 30 30-30h56.75zm0 0" fill="#ffc43b"></path><path d="m384.5 462.75 60-30v-30h-30zm0 0" fill="#ff1b10"></path><path d="m414.5 462.75-83.5-30v-30h83.5zm0 0" fill="#ff451b"></path><path d="m444.5 474.5h-30l-30-20.875 30-20.875h30zm0 0" fill="#d6faff"></path><path d="m331 432.75h83.5v41.75h-83.5zm0 0" fill="#fff"></path><path d="m387.75 271-15 50.875 15 50.875h30v-101.75zm0 0" fill="#ffebbe"></path><path d="m357.75 271h30v101.75h-30zm0 0" fill="#fff"></path><path d="m504.5 241h-30l-60-116.75 60-116.75h30zm0 0" fill="#ffa433"></path><path d="m474.5 241h-203.5v-233.5h86.75l30 30 30-30h56.75zm0 0" fill="#ffc43b"></path><path d="m384.5 199.25 60-30v-30h-30zm0 0" fill="#ff1b10"></path><path d="m414.5 199.25-83.5-30v-30h83.5zm0 0" fill="#ff451b"></path><path d="m444.5 211h-30l-30-20.875 30-20.875h30zm0 0" fill="#d6faff"></path><path d="m331 169.25h83.5v41.75h-83.5zm0 0" fill="#fff"></path><path d="m387.75 7.5-15 50.875 15 50.875h30v-101.75zm0 0" fill="#ffebbe"></path><path d="m357.75 7.5h30v101.75h-30zm0 0" fill="#fff"></path><path d="m241 504.5h-30l-60-116.75 60-116.75h30zm0 0" fill="#ffa433"></path><path d="m211 504.5h-203.5v-233.5h86.75l30 30 30-30h56.75zm0 0" fill="#ffc43b"></path><path d="m121 462.75 60-30v-30h-30zm0 0" fill="#ff1b10"></path><path d="m151 462.75-83.5-30v-30h83.5zm0 0" fill="#ff451b"></path><path d="m181 474.5h-30l-30-20.875 30-20.875h30zm0 0" fill="#d6faff"></path><path d="m67.5 432.75h83.5v41.75h-83.5zm0 0" fill="#fff"></path><path d="m124.25 271-15 50.875 15 50.875h30v-101.75zm0 0" fill="#ffebbe"></path><path d="m94.25 271h30v101.75h-30zm0 0" fill="#fff"></path><path d="m241 0h-233.5c-4.140625 0-7.5 3.359375-7.5 7.5v233.5c0 4.140625 3.359375 7.5 7.5 7.5h233.5c4.140625 0 7.5-3.359375 7.5-7.5v-233.5c0-4.140625-3.359375-7.5-7.5-7.5zm-7.5 233.5h-218.5v-218.5h71.75v28.375c0 4.140625 3.359375 7.5 7.5 7.5s7.5-3.359375 7.5-7.5v-28.375h45v86.75h-45v-28.375c0-4.140625-3.359375-7.5-7.5-7.5s-7.5 3.359375-7.5 7.5v35.875c0 4.140625 3.359375 7.5 7.5 7.5h60c4.140625 0 7.5-3.359375 7.5-7.5v-94.25h71.75zm0 0"></path><path d="m67.5 131.75c-4.140625 0-7.5 3.359375-7.5 7.5v71.75c0 4.140625 3.359375 7.5 7.5 7.5h113.5c4.140625 0 7.5-3.359375 7.5-7.5v-71.75c0-4.140625-3.359375-7.5-7.5-7.5zm106 15v15h-98.5v-15zm-98.5 56.75v-26.75h98.5v26.75zm0 0"></path><path d="m504.5 263.5h-233.5c-4.140625 0-7.5 3.359375-7.5 7.5v233.5c0 4.140625 3.359375 7.5 7.5 7.5h233.5c4.140625 0 7.5-3.359375 7.5-7.5v-233.5c0-4.140625-3.359375-7.5-7.5-7.5zm-7.5 233.5h-218.5v-218.5h71.75v28.375c0 4.140625 3.359375 7.5 7.5 7.5s7.5-3.359375 7.5-7.5v-28.375h45v86.75h-45v-28.375c0-4.140625-3.359375-7.5-7.5-7.5s-7.5 3.359375-7.5 7.5v35.875c0 4.140625 3.359375 7.5 7.5 7.5h60c4.140625 0 7.5-3.359375 7.5-7.5v-94.25h71.75zm0 0"></path><path d="m331 395.25c-4.140625 0-7.5 3.359375-7.5 7.5v71.75c0 4.140625 3.359375 7.5 7.5 7.5h113.5c4.140625 0 7.5-3.359375 7.5-7.5v-71.75c0-4.140625-3.359375-7.5-7.5-7.5zm106 15v15h-98.5v-15zm-98.5 56.75v-26.75h98.5v26.75zm0 0"></path><path d="m504.5 0h-233.5c-4.140625 0-7.5 3.359375-7.5 7.5v233.5c0 4.140625 3.359375 7.5 7.5 7.5h233.5c4.140625 0 7.5-3.359375 7.5-7.5v-233.5c0-4.140625-3.359375-7.5-7.5-7.5zm-139.25 15h45v86.75h-45zm131.75 218.5h-218.5v-218.5h71.75v94.25c0 4.140625 3.359375 7.5 7.5 7.5h60c4.140625 0 7.5-3.359375 7.5-7.5v-94.25h71.75zm0 0"></path><path d="m331 131.75c-4.140625 0-7.5 3.359375-7.5 7.5v71.75c0 4.140625 3.359375 7.5 7.5 7.5h113.5c4.140625 0 7.5-3.359375 7.5-7.5v-71.75c0-4.140625-3.359375-7.5-7.5-7.5zm106 15v15h-98.5v-15zm-98.5 56.75v-26.75h98.5v26.75zm0 0"></path><path d="m241 263.5h-233.5c-4.140625 0-7.5 3.359375-7.5 7.5v233.5c0 4.140625 3.359375 7.5 7.5 7.5h233.5c4.140625 0 7.5-3.359375 7.5-7.5v-233.5c0-4.140625-3.359375-7.5-7.5-7.5zm-139.25 15h45v86.75h-45zm131.75 218.5h-218.5v-218.5h71.75v94.25c0 4.140625 3.359375 7.5 7.5 7.5h60c4.140625 0 7.5-3.359375 7.5-7.5v-94.25h71.75zm0 0"></path><path d="m67.5 395.25c-4.140625 0-7.5 3.359375-7.5 7.5v71.75c0 4.140625 3.359375 7.5 7.5 7.5h113.5c4.140625 0 7.5-3.359375 7.5-7.5v-71.75c0-4.140625-3.359375-7.5-7.5-7.5zm106 15v15h-98.5v-15zm-98.5 56.75v-26.75h98.5v26.75zm0 0"></path></svg>