<svg id="Layer_35" enable-background="new 0 0 64 64" height="50px" viewBox="0 0 64 64" width="50px" xmlns="http://www.w3.org/2000/svg"><path d="m52 14v8c0 2.21-1.79 4-4 4h-24-6v6l-8-6h-4c-2.21 0-4-1.79-4-4v-16c0-2.21 1.79-4 4-4h42c2.21 0 4 1.79 4 4z" fill="#e6e9ed"></path><path d="m24 62v-36h24c2.21 0 4-1.79 4-4v-8h4v6h6v42z" fill="#f0d0b4"></path><path d="m62 20h-6v-6z" fill="#fcd770"></path><path d="m50 50h8c0 4.42-3.58 8-8 8s-8-3.58-8-8z" fill="#3bafda"></path><path d="m58 50h-8v-8c4.42 0 8 3.58 8 8z" fill="#fcd770"></path><path d="m46 38v8h-8c0-4.42 3.58-8 8-8z" fill="#b4dd7f"></path><g fill="#ff826e"><path d="m16.83 10.24 1.17 3.79-2.93 1 1.81 2.62-3.07 2.35-1.81-2.62-1.81 2.62-3.07-2.35 1.81-2.62-2.93-1 1.17-3.79 2.93 1v-3.24h3.8v3.24z"></path><path d="m31.83 10.24 1.17 3.79-2.93 1 1.81 2.62-3.07 2.35-1.81-2.62-1.81 2.62-3.07-2.35 1.81-2.62-2.93-1 1.17-3.79 2.93 1v-3.24h3.8v3.24z"></path><path d="m46.83 10.24 1.17 3.79-2.93 1 1.81 2.62-3.07 2.35-1.81-2.62-1.81 2.62-3.07-2.35 1.81-2.62-2.93-1 1.17-3.79 2.93 1v-3.24h3.8v3.24z"></path></g><path d="m56.414 13h-3.414v-7c0-2.757-2.243-5-5-5h-42c-2.757 0-5 2.243-5 5v16c0 2.757 2.243 5 5 5h3.667l9.333 7v-7h4v36h40v-43.414zm.586 3.414 2.586 2.586h-2.586zm-40 8.586v5l-6.667-5h-4.333c-1.654 0-3-1.346-3-3v-16c0-1.654 1.346-3 3-3h42c1.654 0 3 1.346 3 3v16c0 1.654-1.346 3-3 3zm8 36v-34h23c2.757 0 5-2.243 5-5v-7h2v6h6v40z"></path><path d="m27 57h12v2h-12z"></path><path d="m27 53h12v2h-12z"></path><path d="m27 49h12v2h-12z"></path><path d="m50 41h-1v8h-8v1c0 4.963 4.038 9 9 9s9-4.037 9-9-4.038-9-9-9zm6.921 8h-5.921v-5.929c3.06.44 5.481 2.869 5.921 5.929zm-6.921 8c-3.521 0-6.442-2.612-6.929-6h6.929 1 5.92c-.488 3.386-3.401 6-6.92 6z"></path><path d="m37 47h10v-10h-1c-4.962 0-9 4.037-9 9zm8-7.929v5.929h-5.929c.44-3.062 2.868-5.489 5.929-5.929z"></path><path d="m27 33h2v2h-2z"></path><path d="m31 33h2v2h-2z"></path><path d="m35 33h2v2h-2z"></path><path d="m27 37h10v2h-10z"></path><path d="m57 33h2v2h-2z"></path><path d="m57 37h2v2h-2z"></path><path d="m57 41h2v2h-2z"></path><path d="m17.479 8.959-2.581.882v-2.841h-5.795v2.841l-2.582-.882-1.764 5.707 2.598.887-1.601 2.317 4.662 3.562 1.584-2.293 1.584 2.293 4.662-3.562-1.602-2.317 2.598-.887zm-3.983 5.557 2.021 2.923-1.479 1.13-2.038-2.95-2.037 2.949-1.479-1.13 2.021-2.923-3.263-1.115.582-1.883 3.278 1.12v-3.637h1.795v3.638l3.278-1.12.582 1.883z"></path><path d="m32.479 8.959-2.581.882v-2.841h-5.795v2.841l-2.581-.882-1.764 5.707 2.598.887-1.602 2.317 4.662 3.562 1.584-2.293 1.584 2.293 4.662-3.562-1.602-2.317 2.598-.887zm-3.983 5.557 2.021 2.923-1.479 1.13-2.038-2.95-2.037 2.949-1.479-1.13 2.021-2.923-3.263-1.115.582-1.883 3.278 1.12v-3.637h1.795v3.638l3.278-1.12.582 1.883z"></path><path d="m46.644 15.553 2.598-.887-1.764-5.707-2.581.882v-2.841h-5.795v2.841l-2.581-.882-1.764 5.707 2.598.887-1.602 2.317 4.662 3.562 1.585-2.293 1.584 2.293 4.662-3.562zm-2.607 3.015-2.037-2.949-2.037 2.949-1.479-1.13 2.021-2.923-3.263-1.115.582-1.883 3.278 1.12v-3.637h1.795v3.638l3.278-1.12.582 1.883-3.262 1.115 2.021 2.923z"></path></svg>