<svg version="1.1" id="Layer_1" xmlns="http://www.w3.org/2000/svg" xmlns:xlink="http://www.w3.org/1999/xlink" x="0px" y="0px" viewBox="0 0 512 512" xml:space="preserve" width="50px" height="50px">
<path fill="#E04F5F" d="M374.672,512H91.744c-15.976-0.048-28.92-12.992-28.968-28.968V28.968
	C62.824,12.992,75.768,0.048,91.744,0h328.512c15.976,0.048,28.92,12.992,28.968,28.968v408.696"></path>
<g>
	<path fill="#FFD07D" d="M374.656,452.528V512l74.568-74.336h-59.696C381.328,437.688,374.68,444.328,374.656,452.528z"></path>
	<path fill="#FFD07D" d="M130.576,159.352l85.6-39.752v18.896l-64.712,28.344v0.36l64.712,28.344V214.4l-85.6-39.752
		L130.576,159.352z"></path>
	<path fill="#FFD07D" d="M229.352,221.6l38.152-129.28h18.008L247.36,221.6H229.352z"></path>
	<path fill="#FFD07D" d="M381.424,175.2l-85.6,39.2v-18.864L362,167.2v-0.36l-66.136-28.344V119.6l85.6,39.2L381.424,175.2z"></path>
</g>
<g>
	<path fill="#FFFFFF" d="M136.056,359.2H117.36l20-95.528h18.704l-7.2,34.016c3.576-2.92,7.552-5.32,11.8-7.136
		c3.736-1.472,7.72-2.216,11.736-2.184c4.896-0.272,9.696,1.464,13.288,4.8c3.312,3.352,5.088,7.928,4.888,12.64
		c-0.192,4.352-0.784,8.672-1.776,12.912l-8.488,40.48H161.6l8.664-41.248c0.672-2.832,1.128-5.704,1.368-8.6
		c0.096-2.064-0.688-4.08-2.152-5.536c-1.6-1.456-3.712-2.208-5.864-2.088c-3.28,0.056-6.44,1.2-8.992,3.256
		c-3.656,2.776-6.584,6.392-8.528,10.552c-1.912,5.272-3.352,10.696-4.304,16.224L136.056,359.2z"></path>
	<path fill="#FFFFFF" d="M203.32,303.864l2.864-13.872h9.12l2.28-11.08l21.44-12.904l-5.016,24h11.408l-2.864,13.872h-11.48
		l-6.064,29c-0.688,2.968-1.216,5.968-1.6,8.992c-0.072,1.272,0.432,2.504,1.368,3.36c1.464,0.952,3.216,1.376,4.952,1.2
		c0.824,0,2.88-0.152,6.184-0.456l-2.928,13.872c-3.256,0.664-6.576,0.992-9.904,0.984c-5.096,0.432-10.184-0.92-14.4-3.816
		c-3.064-2.656-4.728-6.568-4.52-10.616c0.432-4.96,1.232-9.888,2.4-14.728l5.8-27.832L203.32,303.864z"></path>
	<path fill="#FFFFFF" d="M256.952,289.984h17.6L272.8,298.4c5.568-6.104,13.344-9.72,21.6-10.048
		c4.264-0.272,8.504,0.872,12.056,3.256c2.856,2.224,4.784,5.432,5.408,8.992c2.664-3.712,6.2-6.704,10.296-8.728
		c4.288-2.304,9.08-3.512,13.944-3.52c4.72-0.28,9.352,1.312,12.904,4.432c3.128,3.08,4.808,7.344,4.624,11.736
		c-0.248,4.176-0.864,8.32-1.832,12.384l-8.832,42.296h-18.704l8.856-42.288c1.064-5.304,1.6-8.304,1.6-8.992
		c0.088-1.688-0.544-3.328-1.728-4.528c-1.44-1.208-3.296-1.808-5.176-1.664c-5.112,0.256-9.768,3.008-12.448,7.368
		c-3.496,5.712-5.808,12.072-6.784,18.704l-6.536,31.4h-18.704l8.728-41.832c0.752-3.08,1.264-6.208,1.528-9.368
		c0.056-1.696-0.616-3.328-1.848-4.496c-1.408-1.232-3.248-1.864-5.12-1.76c-2.232,0.056-4.408,0.688-6.32,1.832
		c-2.224,1.264-4.168,2.968-5.704,5.016c-1.824,2.496-3.248,5.272-4.208,8.208c-0.536,1.56-1.376,5.104-2.536,10.624l-6.68,31.776
		H242.48L256.952,289.984z"></path>
	<path fill="#FFFFFF" d="M361.6,359.2l20-95.528h18.64L380.304,359.2H361.6z"></path>
</g>
<g>
</g>
<g>
</g>
<g>
</g>
<g>
</g>
<g>
</g>
<g>
</g>
<g>
</g>
<g>
</g>
<g>
</g>
<g>
</g>
<g>
</g>
<g>
</g>
<g>
</g>
<g>
</g>
<g>
</g>
</svg>