<svg id="Capa_1" enable-background="new 0 0 510 510" height="50px" viewBox="0 0 510 510" width="50px" xmlns="http://www.w3.org/2000/svg"><path d="m427.66 10v435.42h-384.64c-20.53 0-37.18-16.64-37.18-37.18v-398.24c0-5.52 4.48-10 10-10h401.82c5.52 0 10 4.48 10 10z" fill="#ffe9cb"></path><path d="m427.66 10v435.42h-215.52v-445.42h205.52c5.52 0 10 4.48 10 10z" fill="#ffd17b"></path><path d="m136.7 61.589h-64.348c-8.284 0-15 6.716-15 15s6.716 15 15 15h17.174v63.197c0 8.284 6.716 15 15 15s15-6.716 15-15v-63.197h17.174c8.284 0 15-6.716 15-15s-6.716-15-15-15z" fill="#ff4b00"></path><path d="m212.14 61.59c-26.01 0-47.18 21.16-47.18 47.17v46.03c0 8.28 6.72 15 15 15 8.29 0 15-6.72 15-15v-10.17h34.35v10.17c0 8.28 6.72 15 15 15 8.29 0 15-6.72 15-15v-46.03c0-26.01-21.16-47.17-47.17-47.17zm17.17 53.03h-34.35v-5.86c0-9.47 7.71-17.17 17.18-17.17s17.17 7.7 17.17 17.17z" fill="#ff4b00"></path><path d="m259.31 108.76v46.03c0 8.28-6.71 15-15 15-8.28 0-15-6.72-15-15v-10.17h-17.17v-30h17.17v-5.86c0-9.47-7.7-17.17-17.17-17.17v-30c26.01 0 47.17 21.16 47.17 47.17z" fill="#f00"></path><path d="m348.4 115.688 24.331-29.567c5.264-6.396 4.346-15.85-2.051-21.113-6.397-5.266-15.85-4.348-21.114 2.051l-20.592 25.023-20.592-25.023c-5.265-6.397-14.717-7.316-21.114-2.051-6.397 5.264-7.315 14.717-2.051 21.113l24.331 29.567-24.331 29.567c-5.264 6.396-4.346 15.85 2.051 21.113 6.396 5.265 15.851 4.345 21.114-2.051l20.592-25.023 20.592 25.023c5.268 6.401 14.724 7.311 21.114 2.051 6.397-5.264 7.315-14.717 2.051-21.113z" fill="#f00"></path><path d="m504.16 269.85v230.15c0 5.52-4.48 10-10 10h-332.53c-5.52 0-10-4.48-10-10v-54.58l-36.1-211.67h352.52c19.94 0 36.11 16.16 36.11 36.1z" fill="#ff9100"></path><path d="m504.16 269.85v230.15c0 5.52-4.48 10-10 10h-171.67v-276.25h145.56c19.94 0 36.11 16.16 36.11 36.1z" fill="#ff4b00"></path><path d="m343.49 334.69c0 8.28-6.72 15-15 15h-109.78c-8.29 0-15-6.72-15-15 0-8.29 6.71-15 15-15h109.78c8.28 0 15 6.71 15 15z" fill="#ffe9cb"></path><path d="m343.49 334.69c0 8.28-6.72 15-15 15h-6v-30h6c8.28 0 15 6.71 15 15z" fill="#ffd17b"></path><path d="m343.49 411.19c0 8.28-6.72 15-15 15h-109.78c-8.29 0-15-6.72-15-15 0-8.29 6.71-15 15-15h109.78c8.28 0 15 6.71 15 15z" fill="#ffe9cb"></path><g fill="#ffd17b"><path d="m343.49 411.19c0 8.28-6.72 15-15 15h-6v-30h6c8.28 0 15 6.71 15 15z"></path><path d="m447.844 349.688h-53.834c-8.284 0-15-6.716-15-15s6.716-15 15-15h53.833c8.284 0 15 6.716 15 15s-6.715 15-14.999 15z"></path><path d="m447.844 426.188h-53.834c-8.284 0-15-6.716-15-15s6.716-15 15-15h53.833c8.284 0 15 6.716 15 15s-6.715 15-14.999 15z"></path><path d="m151.63 445.42v-175.36c0-20.02-16.23-36.31-36.32-36.31-19.95 0-36.31 16.17-36.31 36.31v138.78c0 20.09-16.2 36.4-36.24 36.58z"></path></g></svg>